<svg width="32" height="32" viewBox="0 0 32 32" fill="none" xmlns="http://www.w3.org/2000/svg">
<path d="M12.1331 11.5242L5.76562 5.0213" stroke="#6E6C6C" stroke-width="2" stroke-linecap="round"/>
<path d="M13.0152 11.673L15.0283 4" stroke="#6E6C6C" stroke-width="2" stroke-linecap="round"/>
<path d="M11.7782 12.8075H4" stroke="#6E6C6C" stroke-width="2" stroke-linecap="round"/>
<path d="M9.24986 10.1616L16.0518 25.8963C16.3982 26.6976 17.5331 26.7014 17.8849 25.9025L20.3798 20.2374C20.4801 20.0095 20.6619 19.8272 20.8895 19.7263L25.9381 17.487C26.731 17.1353 26.7308 16.01 25.9377 15.6586L10.5729 8.8505C9.74071 8.48177 8.88869 9.32611 9.24986 10.1616Z" fill="#6E6C6C" stroke="white" stroke-width="2" stroke-linejoin="round"/>
<path d="M25.8736 26.5369C26.26 26.9315 26.8931 26.9382 27.2877 26.5518C27.6824 26.1654 27.689 25.5323 27.3026 25.1377L25.8736 26.5369ZM18.8148 19.3279L25.8736 26.5369L27.3026 25.1377L20.2438 17.9287L18.8148 19.3279Z" fill="#6E6C6C"/>
</svg>
