<svg width="32" height="32" viewBox="0 0 32 32" fill="none" xmlns="http://www.w3.org/2000/svg">
<circle cx="10.3529" cy="10.3529" r="6.35294" fill="#6E6C6C"/>
<path d="M9.26792 10.5741L16.0549 25.9471C16.4045 26.7389 17.5267 26.7428 17.8817 25.9534L20.377 20.4052C20.4791 20.1781 20.6623 19.9973 20.8907 19.8981L25.887 17.7282C26.6894 17.3797 26.6892 16.2417 25.8867 15.8935L10.5808 9.25287C9.74577 8.89061 8.90032 9.74149 9.26792 10.5741Z" fill="#6E6C6C" stroke="white" stroke-width="2" stroke-linejoin="round"/>
<path d="M25.881 26.5895C26.2715 26.98 26.9047 26.98 27.2952 26.5895C27.6858 26.199 27.6858 25.5658 27.2952 25.1753L25.881 26.5895ZM18.8222 19.5307L25.881 26.5895L27.2952 25.1753L20.2364 18.1164L18.8222 19.5307Z" fill="#6E6C6C"/>
</svg>
