<svg width="437" height="745" viewBox="0 0 437 745" fill="none" xmlns="http://www.w3.org/2000/svg">
<path d="M266.177 234.84C279.471 244.003 284.51 259.488 288.001 274.52C289.709 271.484 290.688 268.376 291.649 265.037C295.059 253.258 299.461 241.686 310.423 235.055C321.836 229.09 334.614 227.433 347.251 230.243C355.162 233.221 360.077 237.687 363.751 245.27C364.323 246.42 364.896 247.57 365.486 248.755C368.458 255.594 369.305 262.594 369.232 269.989C369.232 270.773 369.231 271.558 369.231 272.366C369.228 274.918 369.209 277.469 369.189 280.02C369.182 281.827 369.175 283.634 369.169 285.44C369.117 296.121 368.879 306.783 368.501 317.458C368.349 322.299 368.209 327.14 368.074 331.982C368.022 333.794 367.966 335.606 367.908 337.418C367.699 343.955 367.541 350.49 367.439 357.029C367.398 359.207 367.34 361.385 367.265 363.563C366.502 377.926 366.502 377.926 372.329 390.555C373.515 391.797 373.515 391.797 374.725 393.063C386.595 405.874 387.799 426.342 387.18 442.878C386.637 450.896 384.887 458.725 383.001 466.52C382.813 467.298 382.626 468.077 382.432 468.879C378.01 486.471 371.133 505.568 362.369 521.485C360.741 525.097 360.45 528.02 360.193 531.969C360.141 532.686 360.09 533.403 360.037 534.141C359.927 535.687 359.822 537.233 359.722 538.779C359.449 542.97 359.131 547.157 358.814 551.344C358.749 552.202 358.685 553.06 358.618 553.943C358.038 561.462 357.221 568.939 356.316 576.425C351.11 619.587 347.647 662.124 352.001 705.52C352.338 708.961 352.674 712.402 353.008 715.843C353.342 719.269 353.683 722.695 354.036 726.12C354.161 727.358 354.286 728.596 354.415 729.872C354.528 730.963 354.641 732.054 354.757 733.179C355.032 736.95 355.001 740.739 355.001 744.52C294.281 744.52 233.561 744.52 171.001 744.52C170.671 722.74 170.341 700.96 170.001 678.52C159.026 654.948 159.026 654.948 142.689 636.645C141.726 635.769 140.763 634.892 139.771 633.989C137.514 631.977 135.216 630.058 132.876 628.145C100.669 599.866 89.4911 546.072 78.643 506.855C76.5811 499.451 74.3559 492.107 72.0636 484.77C69.1089 475.293 66.3326 465.776 63.6886 456.208C63.3632 455.034 63.0378 453.861 62.7025 452.652C59.3858 440.536 56.6735 428.505 54.9582 416.055C54.7848 414.82 54.6115 413.584 54.4329 412.311C54.0712 409.717 53.7126 407.123 53.3568 404.528C52.8153 400.595 52.2574 396.664 51.6984 392.733C51.3465 390.195 50.9955 387.656 50.6457 385.118C50.4801 383.962 50.3145 382.807 50.1439 381.616C48.1621 366.89 47.0132 351.14 56.2511 338.52C63.3245 330.441 70.6896 326.111 81.4816 325.239C95.3725 324.893 106.924 327.685 119.001 334.52C118.603 332.944 118.603 332.944 118.196 331.337C117.84 329.919 117.483 328.501 117.126 327.083C116.865 326.051 116.865 326.051 116.599 324.999C116.241 323.573 115.888 322.146 115.54 320.719C115.184 319.267 114.816 317.819 114.435 316.374C110.854 301.995 111.008 284.822 118.544 271.868C125.913 260.654 135.626 251.503 149.001 248.52C156.181 247.467 162.575 249.312 169.001 252.52C172.4 255.185 175.277 258.213 178.189 261.395C187.883 272.716 187.883 272.716 200.689 278.645C201.452 278.604 202.215 278.563 203.001 278.52C203.954 275.661 204.298 273.061 204.595 270.076C206.022 256.272 210.307 246.698 221.001 237.52C234.811 227.943 251.583 225.984 266.177 234.84Z" fill="#030708"/>
</svg>
