<svg width="437" height="745" viewBox="0 0 437 745" fill="none" xmlns="http://www.w3.org/2000/svg">
<path d="M376.019 33.6443C385.933 39.1523 389.821 46.5363 393.707 57.0818C395.22 64.6471 395.483 72.2007 395.519 79.8943C395.524 80.5529 395.528 81.2114 395.533 81.8899C395.495 93.9528 393.892 105.732 391.769 117.582C391.576 118.677 391.576 118.677 391.378 119.794C388.917 133.651 385.724 147.239 382.102 160.841C381.53 163.006 380.987 165.18 380.453 167.355C379.033 173.08 377.398 178.748 375.797 184.424C375.194 186.563 374.593 188.702 373.992 190.841C371.921 198.199 369.806 205.541 367.616 212.865C361.593 233.067 356.203 253.599 353.394 274.519C353.25 275.561 353.25 275.561 353.103 276.623C350.663 294.516 350.207 312.418 350.269 330.457C350.274 331.854 350.274 331.854 350.279 333.28C350.298 337.966 350.325 342.651 350.361 347.337C350.39 351.263 350.391 355.188 350.376 359.115C350.374 362.187 350.417 365.259 350.457 368.332C350.44 369.938 350.44 369.938 350.423 371.576C350.467 376.825 350.467 376.825 352.839 381.326C354.62 382.869 354.62 382.869 356.556 384.206C368.845 392.989 375.975 410.842 378.734 425.117C384.229 458.492 369.304 495.175 354.488 524.316C345.354 542.477 341.16 558.327 339.875 578.602C339.52 584.168 338.98 589.694 338.332 595.234C338.238 596.036 338.144 596.838 338.047 597.665C337.86 599.26 337.671 600.855 337.482 602.45C335.184 621.825 334.16 641.008 334.144 660.519C334.142 661.571 334.141 662.622 334.139 663.705C334.137 681.836 335.227 699.524 337.394 717.519C337.711 720.368 338.019 723.218 338.32 726.069C338.485 727.612 338.655 729.154 338.835 730.694C339.365 735.392 339.394 739.722 339.394 744.519C278.674 744.519 217.954 744.519 155.394 744.519C155.064 723.069 154.734 701.619 154.394 679.519C145.328 659.876 138.079 645.918 121.554 631.966C91.3488 606.317 79.208 563.09 68.5366 526.432C66.7953 520.456 65.0132 514.493 63.2275 508.53C62.8391 507.233 62.4513 505.936 62.064 504.639C60.0733 497.975 58.0465 491.341 55.769 484.769C53.5428 478.237 51.7013 471.617 49.894 464.957C49.4848 463.46 49.4848 463.46 49.0674 461.932C48.142 458.47 47.2578 454.998 46.394 451.519C46.2054 450.766 46.0167 450.012 45.8224 449.236C42.1892 434.55 39.7008 419.79 37.5989 404.813C37.0789 401.125 36.537 397.442 35.9936 393.758C30.1562 353.313 30.1562 353.313 41.3042 337.004C46.8416 330.421 53.8519 326.199 62.4917 325.301C76.7774 324.541 90.5353 325.807 102.394 334.519C102.394 330.585 101.774 328.317 100.519 324.644C95.1279 307.553 93.7497 289.155 102.082 272.832C108.752 261.469 118.321 252.646 131.214 248.953C138.296 247.544 144.886 248.329 151.394 251.519C154.019 253.832 154.019 253.832 156.394 256.519C158.251 258.107 160.138 259.652 162.039 261.187C162.486 261.627 162.933 262.066 163.394 262.519C163.394 263.179 163.394 263.839 163.394 264.519C163.987 264.781 164.58 265.043 165.191 265.312C167.511 266.584 168.868 267.887 170.644 269.832C175.522 274.846 180.41 278.384 187.394 279.519C187.492 278.42 187.59 277.32 187.691 276.187C189.179 260.887 192.656 247.518 205.019 237.144C215.513 230.121 227.08 228.081 239.394 229.519C242.731 230.436 245.462 231.7 248.394 233.519C249.425 234.097 250.457 234.674 251.519 235.269C263.232 244.436 269.947 259.054 271.789 273.644C272.04 276.269 272.246 278.887 272.394 281.519C279.686 282.222 279.686 282.222 286.269 279.644C299.266 260.532 300.522 236.822 303.249 214.535C304.985 200.723 307.35 187.221 310.394 173.644C310.562 172.896 310.729 172.148 310.902 171.377C313.161 161.357 315.69 151.429 318.394 141.519C324.068 120.396 328.144 98.3349 328.894 76.4568C329.359 63.4548 331.596 49.053 341.394 39.5193C351.573 32.666 363.915 29.5696 376.019 33.6443Z" fill="#030708"/>
</svg>
