<svg width="437" height="745" viewBox="0 0 437 745" fill="none" xmlns="http://www.w3.org/2000/svg">
<path d="M231.605 2.51988C241.357 8.14569 248.963 15.5745 252.418 26.5199C259.358 55.5724 258.766 86.945 258.679 116.674C258.667 120.623 258.674 124.572 258.686 128.522C258.723 143.729 258.541 158.786 257.144 173.942C256.224 184.014 256.063 194.036 256.105 204.145C256.107 205.069 256.109 205.993 256.111 206.946C256.042 245.237 256.042 245.237 273.105 278.297C276.901 281.469 280.332 282.077 285.207 282.086C289.15 281.076 291.622 278.589 294.008 275.383C302.481 259.345 305.122 239.72 307.02 221.879C309.125 202.328 312.178 183.107 317.4 164.127C325.723 133.63 332.151 102.18 333.918 70.5824C334.665 58.9246 338.04 47.3198 346.668 39.0824C355.128 32.2058 363.728 31.6043 374.418 32.5199C380.852 33.8105 387.022 36.2659 391.012 41.6839C408.974 70.1242 398.332 112.424 391.472 142.93C386.404 164.965 379.77 186.624 373.336 208.289C372.905 209.741 372.474 211.193 372.043 212.645C371.728 213.708 371.728 213.708 371.406 214.792C368.229 225.521 365.283 236.266 362.924 247.209C362.424 249.493 361.884 251.765 361.34 254.039C355.191 280.673 355.144 307.966 355.168 335.145C355.168 335.814 355.168 336.483 355.169 337.172C355.174 346.29 355.253 355.404 355.418 364.52C355.438 365.877 355.438 365.877 355.458 367.261C355.498 369.522 355.569 371.78 355.656 374.039C355.695 375.201 355.734 376.362 355.775 377.558C356.825 382.393 359.929 384.792 363.582 387.91C372.318 395.948 378.02 407.293 381.418 418.52C381.783 419.697 382.148 420.874 382.523 422.086C383.912 427.825 383.759 433.648 383.73 439.52C383.725 440.724 383.719 441.929 383.713 443.17C383.589 452.308 382.824 460.667 380.418 469.52C380.144 470.536 380.144 470.536 379.864 471.573C373.977 492.859 365.418 513.962 355.349 533.606C348.574 546.84 345.735 558.647 344.543 573.395C344.357 575.377 344.168 577.359 343.976 579.34C343.6 583.259 343.242 587.179 342.901 591.101C342.485 595.853 342.007 600.595 341.488 605.336C339.928 619.718 338.708 634.053 338.418 648.52C338.385 650.156 338.385 650.156 338.352 651.825C337.955 675.562 339.344 699.022 342.452 722.558C343.405 730.061 343.418 736.801 343.418 744.52C282.698 744.52 221.978 744.52 159.418 744.52C159.088 722.74 158.758 700.96 158.418 678.52C152.985 665.687 152.985 665.687 146.23 653.832C145.819 653.183 145.407 652.534 144.982 651.866C141.342 646.195 137.627 641.469 132.293 637.27C99.4671 610.73 85.3509 569.431 74.0161 529.931C71.5793 521.442 69.0548 512.985 66.4727 504.539C48.1779 444.681 48.1779 444.681 43.9302 415.05C43.3422 410.998 42.7241 406.95 42.1016 402.903C34.6035 354.041 34.6035 354.041 45.418 337.52C52.2328 329.813 59.5777 325.996 69.8437 325.282C82.7931 325.034 95.0528 326.89 106.418 333.52C106.748 333.19 107.078 332.86 107.418 332.52C107.069 331.302 106.719 330.084 106.359 328.828C105.899 327.205 105.44 325.581 104.98 323.957C104.75 323.158 104.52 322.358 104.283 321.534C100.106 306.701 98.7277 288.788 105.418 274.52C111.749 263.317 121.004 253.831 133.355 249.707C142.198 247.358 149.345 248.057 157.418 252.52C161.063 255.546 164.259 258.926 167.48 262.395C176.707 273.29 176.707 273.29 189.18 278.668C190.288 278.595 190.288 278.595 191.418 278.52C192.659 274.798 192.631 271.288 192.699 267.407C192.727 266.198 192.727 266.198 192.755 264.964C192.814 262.379 192.866 259.793 192.918 257.207C192.987 253.836 193.059 250.465 193.137 247.094C193.156 246.261 193.175 245.428 193.195 244.569C193.315 239.939 193.549 235.345 193.934 230.727C194.717 220.674 194.661 210.598 194.668 200.52C194.669 199.432 194.671 198.343 194.672 197.222C194.665 171.276 192.93 145.522 190.765 119.678C189.167 100.548 188.115 81.5365 188.043 62.3324C188.035 61.3843 188.027 60.4363 188.019 59.4595C187.894 40.2476 189.561 22.0786 203.418 7.51988C211.679 0.260206 221.138 -2.36947 231.605 2.51988Z" fill="#030708"/>
</svg>
