<svg width="437" height="745" viewBox="0 0 437 745" fill="none" xmlns="http://www.w3.org/2000/svg">
<path d="M227.605 2.64363C238.51 8.91483 245.851 18.2566 249.292 30.5186C250.022 34.5424 250.483 38.5785 250.917 42.6436C251.038 43.6826 251.16 44.7216 251.285 45.7921C252.72 58.4623 253.457 71.1519 253.855 83.8936C253.876 84.5582 253.897 85.2227 253.918 85.9074C254.288 98.0477 254.4 110.186 254.417 122.331C254.42 123.151 254.423 123.971 254.425 124.816C254.464 140.364 254.318 156.01 251.855 171.394C251.722 172.278 251.589 173.163 251.453 174.074C250.908 177.685 250.331 181.289 249.722 184.89C245.401 210.714 239.378 247.849 253.292 271.519C253.678 272.188 254.063 272.857 254.46 273.546C257.387 277.744 260.098 279.076 265.105 280.081C271.147 280.755 276.945 280.829 282.109 277.265C283.538 276.056 284.919 274.791 286.292 273.519C286.952 273.519 287.612 273.519 288.292 273.519C296.026 258.36 299.802 244.396 301.667 227.519C304.663 200.72 310.108 174.927 316.483 148.75C319.218 137.497 321.845 126.242 324.124 114.886C324.328 113.874 324.531 112.863 324.741 111.821C326.843 101.111 327.992 90.4196 328.675 79.5343C329.692 64.0617 331.078 49.8368 343.206 38.7725C351.472 32.1184 359.969 31.7913 370.292 32.5186C377.373 33.6776 382.64 37.0945 387.292 42.5186C402.125 65.6342 395.231 100.097 390.542 125.394C390.315 126.633 390.087 127.872 389.852 129.148C386.155 148.347 380.949 167.174 375.37 185.9C359.411 238.913 359.411 238.913 351.493 293.576C351.352 295.649 351.2 297.721 351.042 299.792C350.386 308.723 350.159 317.587 350.195 326.546C350.197 327.915 350.198 329.283 350.199 330.652C350.203 334.198 350.212 337.744 350.224 341.289C350.234 344.93 350.238 348.571 350.243 352.212C350.254 359.314 350.271 366.416 350.292 373.519C350.92 373.824 351.548 374.129 352.194 374.444C363.002 379.981 371.249 395.621 375.331 406.523C386.882 442.535 372.955 484.624 356.504 517.123C355.886 518.324 355.265 519.525 354.644 520.726C344.472 540.623 341.542 559.164 339.743 581.326C339.327 586.325 338.771 591.298 338.16 596.276C338.065 597.046 337.97 597.816 337.873 598.61C337.686 600.127 337.5 601.645 337.313 603.162C335.891 614.901 334.556 626.64 334.348 638.471C334.306 640.76 334.248 643.048 334.182 645.336C333.386 673.491 335.646 701.211 338.53 729.209C338.63 730.202 338.73 731.195 338.833 732.218C338.967 733.506 338.967 733.506 339.103 734.82C339.329 738.046 339.292 741.285 339.292 744.519C278.572 744.519 217.852 744.519 155.292 744.519C154.962 723.069 154.632 701.619 154.292 679.519C145.866 659.295 137.253 645.352 120.674 631.191C101.907 615.107 91.0742 591.197 82.2923 568.519C82.0449 567.883 81.7975 567.247 81.5426 566.592C76.9583 554.731 73.1594 542.75 69.7228 530.512C68.3333 525.564 66.9198 520.624 65.5072 515.683C65.23 514.712 64.9528 513.74 64.6672 512.74C62.3907 504.793 59.9738 496.9 57.4798 489.019C53.05 474.949 49.0408 460.785 45.2923 446.519C45.045 445.597 44.7976 444.675 44.5428 443.726C40.1336 427.083 38.2106 410.071 36.1228 393.017C35.5584 388.46 34.9037 383.928 34.1712 379.394C31.8924 364.925 32.2691 350.348 40.0423 337.456C43.8946 332.206 48.9092 328.83 55.2923 327.519C72.334 326.399 91.3961 325.263 105.105 337.081C106.292 338.519 106.292 338.519 107.292 341.519C108.484 305.196 104.195 267.831 96.8285 232.26C95.5514 225.73 94.541 219.149 93.4798 212.581C93.3488 211.773 93.2178 210.965 93.0829 210.133C90.9728 197.092 89.0321 184.032 87.1942 170.95C85.5592 159.318 83.848 147.698 82.1048 136.081C81.9782 135.234 81.8515 134.388 81.721 133.515C78.7263 113.28 78.7263 113.28 74.7782 93.2144C73.9195 88.4498 74.024 83.6609 73.9798 78.8311C73.9508 77.7928 73.9218 76.7544 73.8919 75.6846C73.7993 64.3178 77.4992 55.7673 85.2923 47.5186C90.5339 43.0089 95.0295 41.1555 101.882 41.2335C108.942 42.0688 114.877 46.8385 119.503 51.9718C123.842 57.5791 127.308 63.0455 130.167 69.5186C130.441 70.1338 130.715 70.749 130.997 71.3829C135.11 81.2314 136.717 91.5448 137.917 102.081C139.878 118.169 142.289 134.185 144.73 150.206C144.917 151.444 145.104 152.682 145.297 153.957C147.335 167.428 149.5 180.859 151.956 194.261C153.824 204.48 155.232 214.622 156.23 224.956C159.069 253.097 159.069 253.097 173.292 276.706C176.752 278.797 178.33 279.277 182.292 278.519C188.268 275.104 190.412 269.622 192.206 263.296C195.651 248.244 194.461 233.978 192.433 218.796C191.329 210.043 190.927 201.33 190.73 192.519C190.469 181.085 190.06 169.684 189.355 158.269C189.291 157.226 189.291 157.226 189.225 156.163C188.652 146.99 187.913 137.844 186.972 128.702C186.319 122.24 185.961 115.789 185.689 109.301C185.441 103.711 185.015 98.1569 184.51 92.5848C183.601 82.445 183.106 72.389 183.105 62.2061C183.104 60.5712 183.104 60.5712 183.103 58.9032C183.23 40.2168 185.443 21.9204 198.667 7.64363C207.008 -0.0432844 217.01 -2.33954 227.605 2.64363Z" fill="#030708"/>
</svg>
