<svg width="428" height="745" viewBox="0 0 428 745" fill="none" xmlns="http://www.w3.org/2000/svg">
<path d="M256.175 1.00055C266.49 4.81929 272.437 11.6225 277.405 21.317C280.923 29.2764 282.28 36.8753 283.03 45.5045C283.148 46.7693 283.266 48.0341 283.387 49.3372C283.747 53.3292 284.079 57.3221 284.405 61.317C284.511 62.5354 284.617 63.7539 284.726 65.0093C286.236 82.7846 286.588 100.484 286.593 118.317C286.594 119.855 286.594 119.855 286.596 121.425C286.594 138.599 285.895 155.397 283.307 172.391C282.723 176.249 282.172 180.111 281.616 183.973C280.523 191.539 280.523 191.539 279.977 195.157C278.359 206.026 278.161 216.929 278.056 227.902C278.039 229.562 278.017 231.223 277.988 232.884C277.776 246.652 278.079 263.251 287.405 274.317C288.045 275.101 288.684 275.884 289.343 276.692C293.742 280.158 298.592 280.792 304.046 280.618C311.691 279.643 316.821 275.776 321.624 269.915C330.636 256.773 332.723 239.505 334.188 223.98C334.563 220.04 334.983 216.104 335.405 212.169C335.488 211.398 335.571 210.628 335.656 209.835C337.223 195.576 340.147 181.679 343.768 167.81C346.147 158.512 348.335 149.164 350.564 139.829C351.309 136.718 352.067 133.611 352.827 130.504C357.171 112.474 360.411 94.1983 360.843 75.6295C361.203 61.798 364.091 49.6695 374.097 39.6177C380.145 34.03 386.048 31.7685 394.28 31.942C394.983 31.9528 395.686 31.9637 396.409 31.9749C405.088 32.2406 411.285 34.1372 417.62 40.1959C428.639 53.2877 428.534 74.0167 427.162 90.1822C424.835 113.975 420.261 137.165 414.405 160.317C414.166 161.281 413.926 162.245 413.679 163.238C410.629 175.49 407.153 187.555 403.376 199.601C400.261 209.604 397.603 219.696 395.037 229.852C394.475 232.046 393.891 234.231 393.288 236.415C389.411 250.465 386.48 264.469 384.718 278.942C384.599 279.918 384.479 280.893 384.356 281.898C382.09 301.749 382.199 321.593 382.374 341.54C382.412 346.403 382.381 351.256 382.26 356.118C381.144 371.597 381.144 371.597 387.363 384.968C388.945 386.359 390.563 387.633 392.257 388.883C403.514 397.584 409.48 415.632 411.405 429.317C414.509 460.628 401.489 492.362 388.691 520.211C387.95 521.851 387.95 521.851 387.195 523.523C385.873 526.397 384.424 529.183 382.94 531.976C374.985 547.436 372.991 562.338 371.405 579.504C371.134 582.115 370.859 584.725 370.581 587.335C369.781 594.989 369.072 602.65 368.405 610.317C368.249 612.111 368.249 612.111 368.089 613.942C366.799 629.022 366.066 643.996 366.155 659.129C366.158 660.064 366.161 660.999 366.164 661.962C366.241 684.446 367.613 706.668 370.44 728.987C370.565 729.982 370.69 730.976 370.82 732.001C370.933 732.862 371.045 733.724 371.162 734.612C371.452 737.835 371.405 741.081 371.405 744.317C310.685 744.317 249.965 744.317 187.405 744.317C187.075 722.867 186.745 701.417 186.405 679.317C174.037 652.63 174.037 652.63 154.843 632.754C120.294 604.707 108.25 554.297 96.6936 513.261C94.2769 504.681 91.7872 496.172 88.843 487.754C81.9351 467.837 76.7266 447.01 72.9494 426.283C60.0941 356.179 42.029 288.369 14.007 222.692C-2.2544 184.549 -2.2544 184.549 3.46799 168.442C6.19332 164.046 9.75269 160.643 14.4055 158.317C25.7653 157.351 36.7421 158.63 46.218 165.379C60.128 177.43 64.4634 194.569 68.9133 211.665C71.8336 222.834 75.1439 233.869 78.705 244.849C79.3423 246.815 79.9747 248.783 80.6067 250.751C86.3325 268.831 86.3325 268.831 94.1555 286.067C94.5852 286.873 95.015 287.68 95.4577 288.511C99.9804 296.735 105.368 305.004 114.37 308.762C119.595 310.186 124.366 310.145 129.28 307.754C132.887 304.941 134.258 302.615 135.405 298.317C135.609 297.569 135.813 296.822 136.023 296.051C138.926 283.085 137.943 269.243 135.405 256.317C135.199 255.174 134.993 254.03 134.78 252.852C133.639 246.775 132.305 240.821 130.654 234.865C127.727 224.252 125.701 213.618 123.968 202.754C123.672 200.938 123.375 199.121 123.078 197.305C120.281 180.054 117.82 162.755 115.404 145.447C114.347 137.879 113.263 130.315 112.155 122.754C112.004 121.703 111.853 120.652 111.698 119.569C110.725 112.952 109.407 106.486 107.845 99.9859C106.524 94.4447 105.756 89.0023 105.405 83.317C105.289 81.7063 105.289 81.7063 105.171 80.063C104.707 68.5226 107.153 58.584 114.78 49.692C119.855 44.6088 123.914 41.202 131.343 40.817C140.072 41.2521 145.364 45.5827 151.238 51.7701C163.457 66.1258 167.829 83.0745 169.573 101.424C170.566 111.575 172.243 121.614 173.839 131.684C174.422 135.424 174.98 139.166 175.53 142.911C177.924 159.148 180.605 175.312 183.493 191.469C185.765 204.218 187.607 216.951 189.104 229.815C191.109 246.444 193.876 264.311 205.905 276.942C209.108 278.703 210.805 278.992 214.405 278.317C219.946 274.263 223.606 267.27 224.958 260.582C225.693 255.215 225.591 249.854 225.591 244.444C225.593 242.416 225.611 240.389 225.63 238.362C225.663 230.559 225.04 223.051 223.902 215.322C222.954 208.3 222.836 201.198 222.572 194.125C222.39 189.303 222.181 184.482 221.972 179.661C221.928 178.656 221.885 177.651 221.84 176.616C221.331 165.195 220.632 153.788 219.905 142.379C219.841 141.366 219.776 140.352 219.71 139.307C218.931 127.121 218.121 114.937 217.28 102.754C217.201 101.594 217.121 100.433 217.039 99.2369C216.739 94.9199 216.44 90.6045 216.062 86.2935C211.413 29.8666 211.413 29.8666 228.433 9.29352C236.452 1.25854 244.982 -1.76219 256.175 1.00055Z" fill="#030708"/>
</svg>
