<svg width="561" height="745" viewBox="0 0 561 745" fill="none" xmlns="http://www.w3.org/2000/svg">
<path d="M259.486 2.70702C269.689 8.55827 276.482 17.3149 280.111 28.5195C281.041 32.8272 281.573 37.1481 282.111 41.5195C282.271 42.7664 282.43 44.0132 282.595 45.2978C283.886 55.6082 284.727 65.8923 285.236 76.2695C285.298 77.5118 285.298 77.5118 285.361 78.7791C288.56 145.653 288.56 145.653 282.642 175.648C281.682 180.846 281.064 186.087 280.424 191.332C280.305 192.257 280.186 193.183 280.063 194.136C274.301 235.235 274.301 235.235 286.111 273.52C289.601 277.247 292.825 280.182 298.092 280.723C306.697 280.905 312.925 278.657 319.232 272.695C331.475 258.518 332.913 236.055 334.736 218.27C335.116 214.68 335.504 211.092 335.9 207.504C335.995 206.646 336.09 205.788 336.188 204.903C337.062 197.335 338.449 189.954 340.111 182.52C340.353 181.418 340.594 180.317 340.842 179.182C342.238 172.871 343.873 166.635 345.549 160.395C347.538 152.98 349.247 145.538 350.767 138.013C351.485 134.461 352.239 130.934 353.135 127.422C354.808 120.859 355.95 114.188 357.111 107.52C357.247 106.745 357.383 105.97 357.523 105.172C359.168 95.6102 360.286 86.2212 360.611 76.5195C361.089 63.0677 363.415 50.3982 372.799 40.1445C380.605 32.9899 389.017 31.6874 399.326 32.1328C404.296 32.6406 407.938 33.8178 412.111 36.5195C413.163 37.1795 414.215 37.8395 415.299 38.5195C423.554 45.9464 426.182 58.64 426.943 69.207C426.999 70.3001 427.054 71.3933 427.111 72.5195C427.177 73.7983 427.243 75.077 427.311 76.3945C428.117 100.716 422.914 125.033 417.111 148.52C416.834 149.645 416.556 150.77 416.271 151.93C412.529 166.965 408.347 181.853 403.943 196.706C393.278 232.777 384.6 268.933 380.924 306.457C380.816 307.552 380.816 307.552 380.706 308.669C379.156 326.093 378.873 343.581 378.816 361.063C378.805 363.527 378.784 365.991 378.755 368.455C377.985 404.979 377.985 404.979 392.674 437.332C396.234 440.273 400.757 439.917 405.111 439.52C412.179 438.198 418.047 435.698 423.111 430.52C427.563 423.312 430.346 415.083 433.361 407.207C444.158 379.432 454.887 352.123 476.111 330.52C476.771 329.847 477.431 329.174 478.111 328.48C493.572 313.781 516.674 301.938 538.185 302.097C545.551 302.366 552.912 303.835 558.299 309.207C561.124 314.37 560.949 318.387 559.447 324.004C557.143 330.456 553.568 335.38 549.111 340.52C548.453 341.288 547.794 342.056 547.115 342.848C543.869 346.541 540.558 350.123 536.998 353.516C519.666 370.074 509.354 391.342 499.91 413.155C497.765 418.103 495.476 422.953 493.049 427.77C492.715 428.436 492.38 429.103 492.036 429.79C490.534 432.767 489.003 435.717 487.404 438.645C481.405 449.885 477.564 461.923 473.371 473.922C462.958 503.659 462.958 503.659 455.111 515.52C454.685 516.164 454.259 516.808 453.82 517.472C444.28 531.747 433.21 544.727 422.088 557.774C418.302 562.239 414.68 566.822 411.088 571.444C408.394 574.908 405.632 578.292 402.799 581.645C382.306 606.72 365.896 634.189 365.924 667.27C365.925 668.293 365.926 669.317 365.926 670.371C366.048 686.311 367.068 702.34 369.174 718.145C370.286 726.89 370.648 735.716 371.111 744.52C310.391 744.52 249.671 744.52 187.111 744.52C186.781 723.07 186.451 701.62 186.111 679.52C176.496 657.885 169.454 644.553 151.412 630.355C122.771 607.501 110.88 563.079 101.111 529.52C100.29 526.726 99.4665 523.933 98.6426 521.141C97.3431 516.732 96.0456 512.324 94.7562 507.913C92.3965 499.844 89.9774 491.799 87.4864 483.77C83.2785 470.137 79.6841 456.33 76.1114 442.52C75.8266 441.428 75.5418 440.336 75.2484 439.211C73.8931 433.929 72.716 428.753 72.0489 423.332C71.4969 418.9 70.7205 414.618 69.7249 410.272C68.9722 406.895 68.2835 403.508 67.5958 400.117C60.974 367.24 60.974 367.24 52.7335 334.741C52.2685 333.081 51.8107 331.418 51.3565 329.755C41.623 294.128 29.8385 258.995 14.7152 225.282C-2.11275 187.363 -2.11275 187.363 2.95514 169.555C5.13123 164.548 7.596 161.113 12.7559 159.07C22.2647 156.847 32.9267 158.427 41.6192 162.773C58.352 173.182 63.1364 191.69 68.1114 209.52C79.9485 263.46 79.9485 263.46 110.111 306.52C115.444 309.383 119.196 310.083 125.111 309.52C128.624 308.26 130.531 307.244 132.861 304.332C142.275 283.151 136.385 257.637 130.749 236.339C126.725 221.009 123.99 205.691 121.674 190.02C121.29 187.487 120.906 184.955 120.521 182.423C118.671 170.215 116.883 157.998 115.119 145.777C114.963 144.698 114.807 143.618 114.646 142.505C113.919 137.472 113.199 132.437 112.494 127.4C111.11 117.607 109.507 107.911 107.459 98.2323C104.364 83.5185 102.632 68.1088 110.842 54.6914C115.514 48.4612 120.949 42.6102 128.811 40.9492C136.147 40.4785 140.632 42.8438 146.111 47.5195C146.716 48.0145 147.321 48.5095 147.943 49.0195C161.95 61.6664 167.274 80.8972 169.33 98.9805C169.434 99.8517 169.537 100.723 169.643 101.62C169.97 104.378 170.292 107.136 170.611 109.895C172.246 124.458 172.246 124.458 174.629 138.912C175.879 145.667 176.684 152.507 177.611 159.312C178.393 164.923 179.26 170.431 180.558 175.944C181.958 182.458 182.922 189.068 183.986 195.645C184.185 196.858 184.185 196.858 184.387 198.096C186.246 209.484 187.814 220.875 189.174 232.332C191.014 247.406 193.398 265.697 205.111 276.707C208.572 278.797 210.149 279.278 214.111 278.52C218.332 275.73 220.057 273.206 221.861 268.52C222.269 267.488 222.676 266.457 223.096 265.395C225.487 258.626 225.297 252.108 225.297 244.998C225.299 242.818 225.317 240.64 225.336 238.461C225.363 231.669 225.15 225.114 224.162 218.379C223.03 210.651 222.835 202.945 222.639 195.145C222.352 183.994 221.822 172.893 220.99 161.77C220.912 160.72 220.912 160.72 220.832 159.65C220.563 156.072 220.29 152.494 220.013 148.917C219.429 141.374 218.876 133.83 218.322 126.285C218.268 125.547 218.214 124.81 218.158 124.049C211.277 30.4483 211.277 30.4483 227.928 10.3242C236.716 1.00284 247.177 -3.15093 259.486 2.70702Z" fill="#030708"/>
</svg>
