<svg width="203" height="326" viewBox="0 0 203 326" fill="none" xmlns="http://www.w3.org/2000/svg">
<path d="M41.5 248C41.8333 243.833 42.6 234.7 43 231.5C43.5 227.5 60.9025 215.5 70.9825 217.5C79.0464 219.1 91.3542 211.833 96.5 208C103.667 202.167 114.6 190.8 101 192C84 193.5 68.5 186 63 190.5C59.0862 193.702 32.1053 204.481 14.7704 211.144C12.6171 211.972 10.6126 212.736 8.8197 213.414C-9.99629 229.542 25.6197 273.894 45.7797 294.054V324.294H138.182C138.182 318.134 138.182 303.799 138.182 295.735C138.182 287.671 141.542 280.055 143.222 277.255C160.694 258.439 169.542 210.055 171.782 188.215C175.142 175.895 184.214 148.231 193.622 136.134C205.382 121.014 202.022 105.895 198.662 100.855C195.974 96.8229 189.702 104.775 186.902 109.255L165.062 144.535C160.582 149.575 151.286 160.999 149.942 166.375C148.262 173.095 143.222 169.735 139.862 166.375C136.502 163.015 149.942 110.935 149.942 100.855C149.942 90.7749 161.702 62.2149 165.062 48.7743C168.422 35.3337 151.622 38.695 148.262 38.695C144.902 38.695 136.502 67.2549 133.142 72.2949C130.454 76.3269 117.462 122.135 111.302 144.535H102.902L92.8224 21.8943C92.8224 16.8543 90.8064 5.76634 82.7424 1.73435C74.6784 -2.29765 70.4225 11.2543 69.3025 18.5343L70.9825 139.494C68.7425 138.374 63.5905 136.134 60.9025 136.134C57.5425 136.134 34.0225 68.9343 28.978 48.7743C23.9334 28.6143 20.578 21.8943 8.8197 21.8943C-0.586919 21.8943 0.419131 42.0543 2.09798 52.1343C9.93798 82.3743 26.29 145.878 28.978 157.974C32.0265 171.693 32.3105 189.56 14.7704 207.812" stroke="url(#paint0_linear_1137_2014)" stroke-width="2"/>
<defs>
<linearGradient id="paint0_linear_1137_2014" x1="101.415" y1="1" x2="101.415" y2="324.294" gradientUnits="userSpaceOnUse">
<stop offset="0.509615" stop-color="#CDCDCD"/>
<stop offset="1" stop-color="#57565D"/>
</linearGradient>
</defs>
</svg>
