<svg width="261" height="326" viewBox="0 0 261 326" fill="none" xmlns="http://www.w3.org/2000/svg">
<path d="M86.6847 290L103.486 324.294H195.889V295.735C195.889 287.671 199.249 280.055 200.929 277.255C218.401 258.439 227.249 210.055 229.489 188.215C232.849 175.895 241.921 148.231 251.329 136.134C263.089 121.014 259.729 105.895 256.369 100.855C253.681 96.8229 247.409 104.775 244.609 109.255L222.769 144.535C218.289 149.575 208.993 160.999 207.649 166.375C205.969 173.095 200.929 169.735 197.569 166.375C194.209 163.015 207.649 110.935 207.649 100.855C207.649 90.7749 219.409 62.2149 222.769 48.7743C226.129 35.3337 209.329 38.695 205.969 38.695C202.609 38.695 194.209 67.2549 190.849 72.2949C188.161 76.3269 175.169 122.135 169.009 144.535H160.609L150.529 21.8943C150.529 16.8543 148.513 5.76634 140.449 1.73435C132.385 -2.29765 128.129 11.2543 127.009 18.5343L128.689 139.494C126.449 138.374 121.297 136.134 118.609 136.134C115.249 136.134 91.7292 68.9343 86.6847 48.7743C81.6401 28.6143 78.2847 21.8943 66.5264 21.8943C57.1198 21.8943 58.1258 42.0543 59.8047 52.1343C67.6447 82.3743 83.9967 145.878 86.6847 157.974C90.0447 173.094 98.207 180 78.207 214L48.7067 174C38.54 168.333 16.3067 159.4 8.70669 169C1.10669 178.6 0.540023 184 1.20669 185.5C7.37347 187.333 21.307 192.4 27.707 198C35.707 205 83.464 275.554 86.6847 290Z" fill="white" stroke="url(#paint0_linear_1137_2015)" stroke-width="2"/>
<defs>
<linearGradient id="paint0_linear_1137_2015" x1="159.122" y1="1" x2="159.122" y2="324.294" gradientUnits="userSpaceOnUse">
<stop stop-color="#57565D"/>
<stop offset="0.490385" stop-color="#CDCDCD"/>
</linearGradient>
</defs>
</svg>
