<svg width="218" height="351" viewBox="0 0 218 351" fill="none" xmlns="http://www.w3.org/2000/svg">
<path d="M48.5195 317.529V350.294H148.639V319.35C148.639 310.612 152.28 302.36 154.1 299.326C173.031 278.939 182.618 226.514 185.045 202.85C188.686 189.501 198.516 159.527 208.709 146.42C221.451 130.037 217.811 113.655 214.17 108.194C211.258 103.826 204.462 112.442 201.428 117.296L177.764 155.522C172.91 160.983 162.838 173.361 161.381 179.186C159.561 186.467 154.1 182.827 150.46 179.186C146.819 175.546 161.381 119.116 161.381 108.194C161.381 97.2725 174.123 66.3273 177.764 51.7642C181.405 37.201 163.202 40.8431 159.561 40.8431C155.92 40.8431 146.819 71.7882 143.178 77.2492C140.266 81.6179 126.189 131.252 119.514 155.522H110.413L99.491 22.6393C99.491 17.1784 97.3066 5.16441 88.5692 0.795676C79.8317 -3.57305 75.2203 11.1107 74.0067 18.9987L75.827 150.061C73.4 148.847 67.8177 146.42 64.9052 146.42C61.2646 146.42 35.7804 73.6078 30.3145 51.7642C24.8487 29.9205 21.213 22.6393 8.47276 22.6393C-1.71945 22.6393 -0.62938 44.483 1.18968 55.4048C9.68443 88.1703 27.4021 156.978 30.3145 170.084C33.9552 186.467 33.957 208.31 8.47276 230.154C-11.9146 247.629 26.6758 295.685 48.5195 317.529Z" fill="url(#paint0_linear_1124_1781)"/>
<defs>
<linearGradient id="paint0_linear_1124_1781" x1="108.801" y1="0" x2="108.801" y2="350.294" gradientUnits="userSpaceOnUse">
<stop stop-color="#4FD507"/>
<stop offset="1" stop-color="#296F03"/>
</linearGradient>

</defs>
</svg>
