<svg width="179" height="351" viewBox="0 0 179 351" fill="none" xmlns="http://www.w3.org/2000/svg">
<path d="M48.5195 317.529V350.294H148.639V319.35C148.639 310.612 152.28 302.36 154.1 299.326C173.031 278.939 171.073 258.664 173.5 235C173.5 225.68 161.988 183.191 150.46 179.186C146.819 175.546 161.381 119.116 161.381 108.194C161.381 97.2725 174.123 66.3273 177.764 51.7642C181.405 37.201 163.202 40.8431 159.561 40.8431C155.92 40.8431 146.819 71.7882 143.178 77.2492C140.266 81.6179 126.189 131.252 119.514 155.522H110.413L99.491 22.6393C99.491 17.1784 97.3066 5.16441 88.5692 0.795676C79.8317 -3.57305 75.2203 11.1107 74.0068 18.9987L75.827 150.061C73.4 148.847 67.8177 146.42 64.9052 146.42C61.2646 146.42 35.7804 73.6078 30.3145 51.7642C24.8487 29.9205 21.213 22.6393 8.47276 22.6393C-1.71945 22.6393 -0.62938 44.483 1.18968 55.4048C9.68443 88.1703 27.4021 156.978 30.3145 170.084C33.9552 186.467 33.957 208.31 8.47276 230.154C-11.9146 247.629 26.6758 295.685 48.5195 317.529Z" fill="url(#paint0_linear_1124_1784)"/>
<defs>
<linearGradient id="paint0_linear_1124_1784" x1="89.1214" y1="0" x2="89.1214" y2="350.294" gradientUnits="userSpaceOnUse">
<stop stop-color="#4FD507"/>
<stop offset="1" stop-color="#AEF985"/>
</linearGradient>
</defs>
</svg>
